<svg width="39" height="39" viewBox="0 0 39 39" fill="none" xmlns="http://www.w3.org/2000/svg">
<path d="M3.25 39C3.25 39 0 39 0 35.75C0 32.5 3.25 22.75 19.5 22.75C35.75 22.75 39 32.5 39 35.75C39 39 35.75 39 35.75 39H3.25ZM19.5 19.5C22.0859 19.5 24.5658 18.4728 26.3943 16.6443C28.2228 14.8158 29.25 12.3359 29.25 9.75C29.25 7.16414 28.2228 4.68419 26.3943 2.85571C24.5658 1.02723 22.0859 0 19.5 0C16.9141 0 14.4342 1.02723 12.6057 2.85571C10.7772 4.68419 9.75 7.16414 9.75 9.75C9.75 12.3359 10.7772 14.8158 12.6057 16.6443C14.4342 18.4728 16.9141 19.5 19.5 19.5Z" fill="white"/>
</svg>
