<svg width="19" height="19" viewBox="0 0 19 19" fill="none" xmlns="http://www.w3.org/2000/svg">
<path d="M9.5 4.75C9.65747 4.75 9.8085 4.81256 9.91985 4.92391C10.0312 5.03526 10.0938 5.18628 10.0938 5.34375V8.90625H13.6562C13.8137 8.90625 13.9647 8.96881 14.0761 9.08016C14.1874 9.1915 14.25 9.34253 14.25 9.5C14.25 9.65747 14.1874 9.8085 14.0761 9.91985C13.9647 10.0312 13.8137 10.0938 13.6562 10.0938H10.0938V13.6562C10.0938 13.8137 10.0312 13.9647 9.91985 14.0761C9.8085 14.1874 9.65747 14.25 9.5 14.25C9.34253 14.25 9.1915 14.1874 9.08016 14.0761C8.96881 13.9647 8.90625 13.8137 8.90625 13.6562V10.0938H5.34375C5.18628 10.0938 5.03526 10.0312 4.92391 9.91985C4.81256 9.8085 4.75 9.65747 4.75 9.5C4.75 9.34253 4.81256 9.1915 4.92391 9.08016C5.03526 8.96881 5.18628 8.90625 5.34375 8.90625H8.90625V5.34375C8.90625 5.18628 8.96881 5.03526 9.08016 4.92391C9.1915 4.81256 9.34253 4.75 9.5 4.75Z" fill="white"/>
</svg>
