<svg width="18" height="18" viewBox="0 0 18 18" fill="none" xmlns="http://www.w3.org/2000/svg">
<path d="M13.2103 11.6361C14.2996 10.1495 14.7874 8.30632 14.5763 6.47538C14.3652 4.64443 13.4706 2.96073 12.0715 1.76112C10.6725 0.56151 8.87214 -0.065537 7.03069 0.00542765C5.18923 0.0763923 3.44246 0.840135 2.13986 2.14386C0.837249 3.44758 0.0748641 5.19514 0.00522715 7.0369C-0.0644098 8.87867 0.563837 10.6788 1.76428 12.0772C2.96472 13.4756 4.64882 14.3691 6.47966 14.579C8.3105 14.7888 10.1531 14.2995 11.6387 13.209H11.6376C11.6713 13.254 11.7073 13.2968 11.7478 13.3384L16.0789 17.6701C16.2898 17.8812 16.576 17.9999 16.8744 18C17.1728 18.0001 17.4591 17.8816 17.6702 17.6707C17.8812 17.4597 17.9999 17.1735 18 16.8751C18.0001 16.5766 17.8817 16.2903 17.6707 16.0792L13.3396 11.7475C13.2994 11.7068 13.2562 11.6692 13.2103 11.635V11.6361ZM13.5005 7.31117C13.5005 8.12381 13.3405 8.92849 13.0295 9.67927C12.7186 10.43 12.2628 11.1122 11.6883 11.6868C11.1138 12.2615 10.4317 12.7173 9.681 13.0283C8.93033 13.3392 8.12576 13.4993 7.31324 13.4993C6.50071 13.4993 5.69615 13.3392 4.94547 13.0283C4.1948 12.7173 3.51272 12.2615 2.93818 11.6868C2.36364 11.1122 1.90788 10.43 1.59695 9.67927C1.28601 8.92849 1.12597 8.12381 1.12597 7.31117C1.12597 5.66997 1.77784 4.096 2.93818 2.9355C4.09851 1.77499 5.67227 1.12303 7.31324 1.12303C8.9542 1.12303 10.528 1.77499 11.6883 2.9355C12.8486 4.096 13.5005 5.66997 13.5005 7.31117Z" fill="black"/>
</svg>
