<svg width="18" height="18" viewBox="0 0 18 18" fill="none" xmlns="http://www.w3.org/2000/svg">
<g clip-path="url(#clip0_3_86)">
<path fill-rule="evenodd" clip-rule="evenodd" d="M0 11.8125C0 11.9617 0.0592632 12.1048 0.164752 12.2102C0.270242 12.3157 0.413316 12.375 0.5625 12.375H5.0625C5.21168 12.375 5.35476 12.3157 5.46025 12.2102C5.56574 12.1048 5.625 11.9617 5.625 11.8125C5.625 11.6633 5.56574 11.5202 5.46025 11.4148C5.35476 11.3093 5.21168 11.25 5.0625 11.25H3.375V1.6875C3.375 1.53832 3.31574 1.39524 3.21025 1.28975C3.10476 1.18426 2.96168 1.125 2.8125 1.125C2.66332 1.125 2.52024 1.18426 2.41475 1.28975C2.30926 1.39524 2.25 1.53832 2.25 1.6875V11.25H0.5625C0.413316 11.25 0.270242 11.3093 0.164752 11.4148C0.0592632 11.5202 0 11.6633 0 11.8125H0ZM2.8125 13.5C2.66332 13.5 2.52024 13.5593 2.41475 13.6648C2.30926 13.7702 2.25 13.9133 2.25 14.0625V16.3125C2.25 16.4617 2.30926 16.6048 2.41475 16.7102C2.52024 16.8157 2.66332 16.875 2.8125 16.875C2.96168 16.875 3.10476 16.8157 3.21025 16.7102C3.31574 16.6048 3.375 16.4617 3.375 16.3125V14.0625C3.375 13.9133 3.31574 13.7702 3.21025 13.6648C3.10476 13.5593 2.96168 13.5 2.8125 13.5ZM6.1875 6.1875C6.1875 6.33668 6.24676 6.47976 6.35225 6.58525C6.45774 6.69074 6.60082 6.75 6.75 6.75H8.4375V16.3125C8.4375 16.4617 8.49676 16.6048 8.60225 16.7102C8.70774 16.8157 8.85082 16.875 9 16.875C9.14918 16.875 9.29226 16.8157 9.39775 16.7102C9.50324 16.6048 9.5625 16.4617 9.5625 16.3125V6.75H11.25C11.3992 6.75 11.5423 6.69074 11.6477 6.58525C11.7532 6.47976 11.8125 6.33668 11.8125 6.1875C11.8125 6.03832 11.7532 5.89524 11.6477 5.78975C11.5423 5.68426 11.3992 5.625 11.25 5.625H6.75C6.60082 5.625 6.45774 5.68426 6.35225 5.78975C6.24676 5.89524 6.1875 6.03832 6.1875 6.1875ZM9 1.125C8.85082 1.125 8.70774 1.18426 8.60225 1.28975C8.49676 1.39524 8.4375 1.53832 8.4375 1.6875V3.9375C8.4375 4.08668 8.49676 4.22976 8.60225 4.33525C8.70774 4.44074 8.85082 4.5 9 4.5C9.14918 4.5 9.29226 4.44074 9.39775 4.33525C9.50324 4.22976 9.5625 4.08668 9.5625 3.9375V1.6875C9.5625 1.53832 9.50324 1.39524 9.39775 1.28975C9.29226 1.18426 9.14918 1.125 9 1.125ZM12.375 11.8125C12.375 11.9617 12.4343 12.1048 12.5398 12.2102C12.6452 12.3157 12.7883 12.375 12.9375 12.375H17.4375C17.5867 12.375 17.7298 12.3157 17.8352 12.2102C17.9407 12.1048 18 11.9617 18 11.8125C18 11.6633 17.9407 11.5202 17.8352 11.4148C17.7298 11.3093 17.5867 11.25 17.4375 11.25H15.75V1.6875C15.75 1.53832 15.6907 1.39524 15.5852 1.28975C15.4798 1.18426 15.3367 1.125 15.1875 1.125C15.0383 1.125 14.8952 1.18426 14.7898 1.28975C14.6843 1.39524 14.625 1.53832 14.625 1.6875V11.25H12.9375C12.7883 11.25 12.6452 11.3093 12.5398 11.4148C12.4343 11.5202 12.375 11.6633 12.375 11.8125ZM15.1875 13.5C15.0383 13.5 14.8952 13.5593 14.7898 13.6648C14.6843 13.7702 14.625 13.9133 14.625 14.0625V16.3125C14.625 16.4617 14.6843 16.6048 14.7898 16.7102C14.8952 16.8157 15.0383 16.875 15.1875 16.875C15.3367 16.875 15.4798 16.8157 15.5852 16.7102C15.6907 16.6048 15.75 16.4617 15.75 16.3125V14.0625C15.75 13.9133 15.6907 13.7702 15.5852 13.6648C15.4798 13.5593 15.3367 13.5 15.1875 13.5Z" fill="black"/>
</g>
<defs>
<clipPath id="clip0_3_86">
<rect width="18" height="18" fill="white"/>
</clipPath>
</defs>
</svg>
