<svg width="23" height="23" viewBox="0 0 23 23" fill="none" xmlns="http://www.w3.org/2000/svg">
<path fill-rule="evenodd" clip-rule="evenodd" d="M16.3213 2.3472C16.3882 2.41343 16.4413 2.49211 16.4776 2.57873C16.5138 2.66535 16.5324 2.75822 16.5324 2.852C16.5324 2.94578 16.5138 3.03865 16.4776 3.12527C16.4413 3.21189 16.3882 3.29057 16.3213 3.3568L8.20374 11.408L16.3213 19.4592C16.4562 19.593 16.5321 19.7746 16.5321 19.964C16.5321 20.1533 16.4562 20.3349 16.3213 20.4688C16.1863 20.6027 16.0033 20.6779 15.8124 20.6779C15.6215 20.6779 15.4385 20.6027 15.3035 20.4688L6.67855 11.9128C6.61162 11.8466 6.55851 11.7679 6.52228 11.6813C6.48604 11.5946 6.46739 11.5018 6.46739 11.408C6.46739 11.3142 6.48604 11.2213 6.52228 11.1347C6.55851 11.0481 6.61162 10.9694 6.67855 10.9032L15.3035 2.3472C15.3703 2.2808 15.4496 2.22812 15.5369 2.19217C15.6243 2.15623 15.7179 2.13773 15.8124 2.13773C15.9069 2.13773 16.0006 2.15623 16.0879 2.19217C16.1752 2.22812 16.2545 2.2808 16.3213 2.3472Z" fill="black"/>
</svg>
