<svg width="224" height="159" viewBox="0 0 224 159" fill="none" xmlns="http://www.w3.org/2000/svg">
<path d="M92.5345 116.449C92.5837 117.629 92.6428 118.81 92.7018 119.991C92.7313 120.552 92.9282 121.034 93.2923 121.438C93.6564 121.841 94.0894 122.058 94.5913 122.078C101.48 122.333 108.369 122.442 115.257 122.402C115.769 122.402 116.202 122.589 116.556 122.983C116.911 123.377 117.078 123.849 117.078 124.41C117.029 128.208 116.97 132.017 116.901 135.816C116.891 136.357 116.714 136.819 116.359 137.203C116.015 137.587 115.592 137.784 115.11 137.784C108.546 137.833 101.992 137.685 95.4474 137.321C94.9751 137.292 94.5814 137.459 94.2764 137.813C93.9713 138.168 93.8434 138.61 93.8827 139.132C93.9615 140.136 94.0402 141.139 94.1189 142.133C94.1583 142.655 94.3551 143.118 94.7094 143.501C95.0636 143.885 95.4671 144.102 95.9297 144.131C103.232 144.603 110.543 144.751 117.865 144.603C118.338 144.594 118.731 144.771 119.046 145.125C119.361 145.479 119.509 145.922 119.489 146.444C119.361 149.977 119.233 153.51 119.085 157.042C119.066 157.544 118.889 157.977 118.574 158.332C118.249 158.696 117.875 158.883 117.442 158.893C106.469 159.198 95.5459 158.489 84.711 156.688C84.2976 156.619 83.9237 156.393 83.5694 155.999C83.2151 155.616 82.9986 155.183 82.9101 154.69C79.5641 136.691 77.6451 118.466 76.8283 100.181C76.8087 99.6106 76.9563 99.1284 77.3007 98.7446C77.6353 98.351 78.0585 98.164 78.5702 98.1837C91.9145 98.5478 105.259 98.6954 118.613 98.6364C119.144 98.6364 119.597 98.843 119.961 99.2465C120.325 99.6598 120.512 100.162 120.503 100.742C120.463 104.698 120.414 108.654 120.355 112.611C120.345 113.181 120.158 113.673 119.784 114.077C119.41 114.48 118.967 114.687 118.456 114.697C110.396 114.776 102.346 114.697 94.2862 114.461C93.7745 114.441 93.3513 114.628 93.0167 115.012C92.6723 115.405 92.5148 115.878 92.5345 116.449Z" fill="#E51C3B"/>
<path d="M68.995 97.9672C65.344 97.8294 61.6831 97.672 58.0321 97.5047C57.5598 97.485 57.1661 97.6523 56.8611 98.0065C56.556 98.3608 56.4182 98.8037 56.4576 99.3351C57.2547 109.766 58.6915 120.109 60.8368 130.354C61.1124 131.85 61.3485 133.375 61.0828 134.871C60.9451 135.678 60.5121 136.731 59.8822 137.302C59.3115 137.813 58.6521 138.099 57.8747 138.168C57.0973 138.236 56.369 138.177 55.69 138C55.0011 137.823 54.204 137.479 53.279 136.987C52.2457 136.445 51.3206 135.717 50.4644 134.969C49.4115 134.054 48.5258 132.932 47.7188 131.791C46.7544 130.433 46.0754 128.838 45.5833 127.244C42.7491 117.767 40.8203 108.094 39.7575 98.2624C39.7083 97.7704 39.5115 97.3275 39.167 96.9634C38.8226 96.5894 38.4289 96.3926 37.9861 96.3631C37.9074 96.3533 37.868 96.3533 37.7893 96.3533C34.591 96.1269 31.3828 95.8907 28.1845 95.6349C28.1058 95.625 28.0664 95.625 27.9975 95.6152C27.5744 95.5857 27.2398 95.7136 26.9839 96.0187C26.728 96.3237 26.6395 96.6977 26.6985 97.1701C27.9975 106.411 30.3495 115.396 33.725 124.095C34.1777 125.315 34.6894 126.575 34.7091 127.884C34.7287 128.76 34.5418 129.37 34.1776 129.704C33.8135 130.039 33.3313 130.167 32.7212 130.088C32.111 130.019 31.5206 129.852 30.9301 129.596C30.3495 129.34 29.6311 128.947 28.7848 128.405C27.8401 127.805 26.9544 127.096 26.0982 126.378C25.0649 125.512 24.1104 124.508 23.2148 123.495C22.1914 122.333 21.3057 121.025 20.5578 119.657C16.5427 112.059 13.6789 104.059 12.0749 95.6152C11.9961 95.2019 11.7993 94.8279 11.4844 94.5032C11.1695 94.1784 10.8152 94.0013 10.4413 93.9619C7.6661 93.6568 4.89095 93.3419 2.1158 92.9975C1.76152 92.9581 1.48598 93.0467 1.299 93.2829C1.11202 93.5092 1.05298 93.8143 1.14154 94.1882C3.02117 101.923 6.33757 108.999 10.8054 115.563C12.5177 118.023 14.5449 120.237 16.6312 122.353C18.8454 124.587 21.1777 126.732 23.5494 128.819C25.862 130.866 28.214 132.883 30.6349 134.792C32.8294 136.524 35.083 138.246 37.4547 139.644C39.0785 140.598 41.0663 141.799 42.9164 141.828C43.9399 141.848 45.1208 141.71 45.849 140.746C47.8664 142.655 50.0118 144.456 52.2752 146.021C54.6665 147.674 57.2449 149.189 59.9807 150.114C62.1653 150.853 64.5961 151.472 66.8496 150.98C68.8178 150.557 70.353 149.632 71.652 148.117C73.1282 146.395 73.7875 144.023 74.191 141.779C74.7323 138.689 74.4862 135.481 74.0631 132.342C72.4984 121.625 71.4454 110.859 70.8746 100.044C70.8451 99.4925 70.6483 99.0103 70.2841 98.6167C69.9102 98.1935 69.487 97.9869 68.995 97.9672Z" fill="#E51C3B"/>
<path d="M171.046 136.406C169.235 138.787 167.346 141.12 165.328 143.314C163.439 145.361 161.421 147.329 159.276 149.081C157.259 150.734 155.074 152.22 152.771 153.49C150.517 154.74 148.047 155.655 145.577 156.186C142.694 156.796 139.663 156.777 136.799 155.675C133.965 154.582 131.623 152.742 129.625 150.528C127.322 147.979 125.728 144.751 124.646 141.563C123.366 137.784 122.855 133.729 122.992 129.744C123.14 125.502 124.035 121.28 125.659 117.364C127.253 113.536 129.507 109.944 132.331 106.903C135.077 103.941 138.374 101.441 141.976 99.6401C145.528 97.8589 149.425 96.865 153.401 96.7272C156.284 96.6288 159.305 96.8256 162.1 97.6621C164.442 98.3608 166.755 99.3154 168.753 100.742C170.632 102.091 172.296 103.695 173.654 105.555C175.002 107.405 176.094 109.461 177.039 111.607C177.196 111.981 177.167 112.404 176.95 112.876C176.744 113.349 176.419 113.713 175.986 113.959C172.561 115.809 169.146 117.649 165.722 119.489C165.24 119.755 164.777 119.814 164.364 119.657C163.941 119.509 163.645 119.233 163.478 118.85C162.504 116.842 161.244 114.963 159.315 113.752C157.229 112.443 154.72 112.138 152.407 112.305C150.527 112.443 148.756 113.044 147.073 113.978C145.371 114.913 143.786 116.281 142.507 117.787C141.169 119.352 140.017 121.162 139.259 123.062C138.492 125 137.941 126.998 137.764 129.035C137.596 130.954 137.744 132.912 138.216 134.802C138.61 136.386 139.318 138.069 140.381 139.319C141.385 140.51 142.527 141.494 143.875 142.094C145.282 142.724 146.788 142.822 148.372 142.625C150.862 142.311 153.165 141.051 155.202 139.555C157.377 137.961 159.296 135.904 160.841 133.641C161.146 133.208 161.52 132.853 161.972 132.578C162.425 132.302 162.848 132.233 163.232 132.351C165.83 133.119 168.438 133.847 171.075 134.477C171.38 134.576 171.538 134.802 171.528 135.166C171.548 135.52 171.38 135.934 171.046 136.406Z" fill="#F49925"/>
<path d="M223.203 93.9324C219.906 107.729 211.945 119.391 201.622 128.937C201.297 129.232 200.933 129.557 200.519 129.911C200.106 130.265 199.771 130.551 199.516 130.767C197.508 132.391 195.451 133.946 193.335 135.432C193.021 135.648 192.873 135.707 192.883 135.599C192.893 135.491 193.04 135.274 193.326 134.93C196.307 131.308 199.033 127.529 201.494 123.534C201.72 123.16 201.789 122.894 201.71 122.737C201.631 122.57 201.415 122.56 201.08 122.698C197.469 124.154 193.808 125.492 190.108 126.722C189.704 126.86 189.311 127.106 188.946 127.49C188.582 127.864 188.307 128.268 188.12 128.691C186.132 133.158 183.898 137.488 181.408 141.71C181.172 142.104 180.857 142.488 180.464 142.871C180.07 143.255 179.706 143.541 179.371 143.708C176.852 144.958 174.303 146.129 171.715 147.231C171.331 147.398 171.085 147.379 170.997 147.182C170.908 146.985 170.947 146.67 171.144 146.247C178.043 130.934 182.284 114.677 184.046 97.9869C184.095 97.4751 184.282 97.0323 184.607 96.6583C184.931 96.2844 185.345 96.0777 185.837 96.0482C189.104 95.8317 192.371 95.5955 195.628 95.3396C196.052 95.3101 196.396 95.4479 196.662 95.753C196.918 96.058 197.016 96.4517 196.957 96.924C196.199 102.484 195.077 107.956 193.591 113.368C193.463 113.821 193.483 114.175 193.65 114.431C193.818 114.687 194.113 114.766 194.556 114.667C198.492 113.791 202.399 112.827 206.296 111.784C206.66 111.685 207.024 111.459 207.388 111.115C207.752 110.77 208.018 110.396 208.166 109.993C209.957 105.22 211.325 100.359 212.26 95.3396C212.338 94.9165 212.525 94.5425 212.821 94.2178C213.116 93.893 213.48 93.706 213.903 93.6667C216.678 93.3714 219.453 93.0565 222.219 92.7318C222.573 92.6924 222.849 92.7908 223.045 93.027C223.232 93.2435 223.291 93.5584 223.203 93.9324Z" fill="#F49925"/>
<path d="M16.5721 50.4255C18.3337 51.4686 20.1444 52.3248 22.0535 52.8365C24.0316 53.3679 26.0588 53.486 28.1057 53.2105C29.6705 53.0038 31.4025 52.5118 32.7507 51.5966C33.8037 50.8683 34.6106 49.7858 34.896 48.5262C35.0436 47.8767 34.9255 47.3846 34.5712 47.0992C34.217 46.804 33.7052 46.5875 33.0459 46.4793C32.3866 46.3612 31.5993 46.3218 30.6841 46.3612C29.7787 46.4005 28.8438 46.3809 27.968 46.371C26.974 46.3513 25.9407 46.3809 24.9271 46.4005C23.8348 46.4202 22.6538 46.3415 21.5713 46.184C20.5774 46.0364 19.5047 45.7707 18.56 45.3968C17.6546 45.0326 16.9658 44.4619 16.5426 43.7336C16.0899 42.9464 16.0506 41.6867 16.2277 40.8502C16.5721 39.2855 17.4283 37.7208 18.2648 36.3726C19.8787 33.8041 21.8862 31.4226 24.0414 29.2084C26.0588 27.1418 28.1549 25.1441 30.3495 23.2841C32.3078 21.621 34.3154 19.9874 36.4312 18.5506C38.1829 17.3599 39.9838 16.1593 41.8732 15.2244C44.0973 14.1222 46.5772 12.9708 49.1162 13.0495C51.2025 13.1086 52.8459 14.0041 54.4697 15.2637C54.6665 15.4901 54.7059 15.8444 54.5878 16.297C54.4598 16.7596 54.2138 17.2221 53.83 17.6748C51.3206 20.7845 48.8013 23.9041 46.2918 27.0138C45.908 27.4665 45.4947 27.8011 45.0519 28.0078C44.5992 28.2144 44.2548 28.2144 44.0186 28.0176C42.5523 27.25 41.1253 26.6202 39.4228 26.5808C37.9565 26.5415 36.4706 26.817 35.1027 27.3386C34.6795 27.496 34.1973 27.6929 33.6364 27.9192C33.0754 28.1455 32.5145 28.4408 31.9634 28.7754C31.4025 29.1198 30.8809 29.5233 30.3888 29.9858C29.9066 30.4483 29.5031 30.9797 29.2079 31.58C28.9127 32.1803 29.0505 32.5641 29.6311 32.761C30.2117 32.9578 30.9695 33.0562 31.8748 33.0759C32.7802 33.0857 33.7151 33.0562 34.6401 32.9578C35.575 32.8692 36.1753 32.8003 36.441 32.7708C37.927 32.6626 39.4622 32.7118 40.8695 32.9184C42.4735 33.1448 43.9005 33.7254 45.2093 34.6799C46.6855 35.7428 47.5613 37.4649 48.1813 39.1674C49.1162 41.7162 48.8013 44.698 48.3781 47.3453C47.9156 50.268 47.1086 53.2695 45.6817 55.8971C44.4319 58.2097 42.8672 60.3452 40.8203 62.0969C38.8422 63.7698 36.5591 65.059 34.1186 65.9053C31.4812 66.8402 28.7159 67.3323 25.9801 67.5291C23.8643 67.6865 21.7091 67.6472 19.5736 67.3913C17.8219 67.1846 16.021 66.7812 14.3776 66.1907C12.9605 65.679 11.5336 65.059 10.2739 64.2422C9.18157 63.5238 8.18763 62.7562 7.19369 61.8705C6.94767 61.6639 6.84926 61.3293 6.93783 60.8864C7.01656 60.4436 7.22322 60.0303 7.55781 59.6366C9.81139 56.8812 12.0847 54.1552 14.3874 51.4293C14.7516 51.0258 15.1452 50.7306 15.5684 50.5436C15.9817 50.2877 16.3261 50.268 16.5721 50.4255Z" fill="#F49925"/>
<path d="M76.2772 5.33419C76.543 4.85198 76.9169 4.3993 77.3991 3.99582C77.8813 3.59234 78.3438 3.33648 78.8064 3.23807C81.8177 2.65745 84.829 2.14572 87.8601 1.70288C88.2931 1.64383 88.6965 1.74224 89.0705 2.02763C89.4445 2.30318 89.6905 2.66729 89.8086 3.11014C94.7487 22.7724 102.051 41.7753 109.353 60.6502C109.569 61.2112 109.53 61.8016 109.215 62.4216C108.9 63.0416 108.29 63.3565 107.404 63.3663C102.661 63.386 97.9077 63.4254 93.1643 63.5041C92.564 63.514 92.0031 63.3171 91.4914 62.9333C90.9796 62.5397 90.5958 62.0772 90.3301 61.5261C89.6511 59.7154 88.9622 57.9046 88.2931 56.0939C88.047 55.5526 87.6731 55.0999 87.1712 54.7161C86.6791 54.3422 86.1576 54.1552 85.6262 54.1749C80.0857 54.3619 74.5452 54.6079 69.0146 54.913C68.4438 54.9425 67.9124 55.159 67.3909 55.5723C66.8693 55.9758 66.5052 56.4481 66.2493 56.9894C65.4128 58.7805 64.5862 60.5715 63.7595 62.3626C63.5234 62.9038 63.1494 63.3663 62.6377 63.7698C62.1259 64.1733 61.6142 64.38 61.1025 64.3996C56.7823 64.5866 52.4621 64.7835 48.1518 65.0196C47.9057 65.0295 47.6597 64.9901 47.3842 64.8917C47.1283 64.8031 46.9217 64.6457 46.7642 64.4292C46.6067 64.2127 46.528 63.947 46.5083 63.6124C46.4887 63.2778 46.5871 62.8841 46.8331 62.4315C55.6998 42.9168 66.0033 24.1107 76.2772 5.33419ZM74.9586 39.8563C77.222 39.6791 79.4756 39.5119 81.7488 39.3741C82.2605 39.3446 82.6444 39.1281 82.9101 38.7443C83.1659 38.3506 83.1856 37.9078 82.9691 37.4059C82.5164 35.7821 82.0342 34.1485 81.5815 32.5248C81.1092 30.8321 80.6368 29.1296 80.1939 27.4272C80.0562 26.9449 79.8594 26.7088 79.6232 26.7481C79.3771 26.7678 79.1311 27.0434 78.8753 27.5649C77.2417 31.0683 75.6277 34.5815 74.0138 38.0948C73.758 38.6262 73.7186 39.069 73.876 39.4233C74.0433 39.7382 74.3976 39.8956 74.9586 39.8563Z" fill="#F49925"/>
<path d="M160.024 8.37505C165.604 26.0101 168.891 44.2355 170.278 62.6676C170.317 63.2384 170.17 63.7108 169.855 64.0946C169.53 64.4784 169.117 64.6654 168.615 64.6358C164.836 64.4587 161.067 64.3012 157.278 64.1635C156.757 64.1438 156.206 63.947 155.615 63.573C155.025 63.1991 154.562 62.7661 154.227 62.2838C146.906 51.134 139.387 40.0925 131.938 29.0312C131.603 28.5589 131.278 28.362 130.954 28.4211C130.629 28.49 130.491 28.8147 130.521 29.3855C131.141 40.0236 131.564 50.6617 131.8 61.3096C131.81 61.9197 131.633 62.4511 131.249 62.8743C130.875 63.2975 130.412 63.5041 129.851 63.5041C125.689 63.4549 121.536 63.4155 117.373 63.386C116.802 63.386 116.33 63.1695 115.936 62.7267C115.543 62.2937 115.336 61.7623 115.336 61.1423C115.267 41.3816 115.09 21.6308 114.785 1.87017C114.775 1.33876 114.933 0.895918 115.247 0.531803C115.572 0.167687 115.946 -0.00945251 116.419 0.000388454C119.833 0.0889571 123.248 0.275939 126.653 0.551486C127.096 0.59085 127.588 0.767985 128.11 1.10258C128.631 1.43717 129.054 1.82097 129.359 2.26381C136.583 12.9413 143.983 23.4809 151.393 34.0206C151.748 34.493 152.072 34.7193 152.387 34.6996C152.702 34.6799 152.82 34.3847 152.751 33.8336C151.492 24.2879 149.868 14.8012 147.782 5.3834C147.664 4.89135 147.723 4.48787 147.939 4.20248C148.156 3.91709 148.471 3.81869 148.894 3.9171C151.954 4.60596 154.995 5.3834 158.016 6.22972C158.42 6.34781 158.813 6.61352 159.207 7.02684C159.601 7.45 159.866 7.90268 160.024 8.37505Z" fill="#F49925"/>
<path d="M181.467 63.3565C179.775 45.4853 175.74 27.9487 169.068 11.2683C168.881 10.8156 168.861 10.4712 168.999 10.2547C169.137 10.0382 169.392 9.99879 169.766 10.1366C174.815 12.0851 179.735 14.2698 184.548 16.7694C190.629 19.9972 195.933 24.6225 201.041 29.1788C204.111 31.9441 207.133 34.8079 209.917 37.8586C212.516 40.7026 215.045 43.7336 216.914 47.1091C218.381 49.7563 219.768 52.7381 219.739 55.7593C219.719 58.2589 218.952 60.4337 217.357 62.3232C215.822 64.1339 213.529 65.2656 211.266 66.0037C208.412 66.9484 205.322 66.9977 202.281 66.8008C195.983 66.2793 189.684 65.8364 183.386 65.4428C182.914 65.4133 182.491 65.1968 182.117 64.7933C181.723 64.38 181.507 63.9076 181.467 63.3565ZM194.969 52.4527C196.603 52.7086 198.226 52.9743 199.85 53.2498C201.08 53.4073 202.192 53.4467 203.422 53.4073C204.377 53.3778 205.587 52.8857 206.267 52.2264C207.123 51.3997 207.349 50.1696 207.447 49.0773C207.615 47.1976 206.709 45.0917 205.971 43.3498C205.046 41.1848 203.796 39.0985 202.33 37.2386C201.13 35.7034 199.791 34.2174 198.325 32.9676C197.114 31.9245 195.845 30.9108 194.457 30.1137C193.335 29.4741 192.204 28.9131 191.003 28.4211C189.566 27.8798 188.13 27.3681 186.683 26.8465C186.289 26.7088 186.033 26.758 185.886 26.9745C185.738 27.2008 185.768 27.5354 185.955 27.9881C188.917 35.2802 191.249 42.7594 193.001 50.4353C193.119 50.9274 193.365 51.38 193.749 51.7835C194.113 52.1575 194.526 52.3937 194.969 52.4527Z" fill="#F49925"/>
<path d="M112 89.2087C173.856 89.2087 224 85.869 224 81.7493C224 77.6295 173.856 74.2898 112 74.2898C50.1441 74.2898 0 77.6295 0 81.7493C0 85.869 50.1441 89.2087 112 89.2087Z" fill="#A60400"/>
</svg>
