<svg width="212" height="150" viewBox="0 0 212 150" fill="none" xmlns="http://www.w3.org/2000/svg">
<path d="M87.5453 109.706C87.5916 110.818 87.6472 111.93 87.7028 113.042C87.7306 113.57 87.9159 114.024 88.2588 114.404C88.6017 114.784 89.0094 114.988 89.482 115.006C95.9687 115.247 102.455 115.349 108.942 115.312C109.424 115.312 109.832 115.488 110.165 115.859C110.499 116.229 110.656 116.674 110.656 117.202C110.61 120.779 110.554 124.366 110.49 127.943C110.48 128.452 110.313 128.888 109.98 129.249C109.656 129.611 109.257 129.796 108.803 129.796C102.622 129.842 96.4505 129.703 90.2882 129.36C89.8434 129.333 89.4727 129.49 89.1855 129.824C88.8982 130.157 88.7777 130.574 88.8148 131.065C88.8889 132.011 88.9631 132.956 89.0372 133.892C89.0743 134.383 89.2596 134.818 89.5932 135.18C89.9268 135.541 90.3067 135.745 90.7423 135.773C97.6181 136.218 104.503 136.357 111.398 136.218C111.842 136.208 112.213 136.375 112.51 136.709C112.806 137.042 112.945 137.459 112.927 137.951C112.806 141.277 112.686 144.604 112.547 147.931C112.528 148.403 112.361 148.811 112.065 149.145C111.759 149.488 111.407 149.664 110.999 149.673C100.667 149.96 90.3809 149.293 80.1783 147.597C79.7891 147.532 79.4369 147.319 79.1033 146.948C78.7697 146.587 78.5659 146.179 78.4825 145.716C75.3318 128.767 73.5248 111.605 72.7557 94.3879C72.7371 93.8504 72.8761 93.3964 73.2005 93.035C73.5155 92.6643 73.914 92.4883 74.3959 92.5068C86.9615 92.8497 99.5271 92.9887 112.102 92.9331C112.602 92.9331 113.029 93.1276 113.371 93.5076C113.714 93.8968 113.89 94.3694 113.881 94.9161C113.844 98.6413 113.798 102.367 113.742 106.092C113.733 106.629 113.557 107.093 113.205 107.472C112.853 107.852 112.436 108.047 111.954 108.056C104.364 108.13 96.7841 108.056 89.1947 107.834C88.7129 107.815 88.3144 107.991 87.9993 108.353C87.675 108.723 87.5267 109.168 87.5453 109.706Z" fill="#E51C3B"/>
<path d="M65.3793 92.3029C61.9414 92.1732 58.4942 92.0249 55.0563 91.8674C54.6115 91.8489 54.2408 92.0064 53.9535 92.34C53.6663 92.6736 53.5365 93.0906 53.5736 93.591C54.3242 103.414 55.6771 113.153 57.6973 122.8C57.9567 124.208 58.1791 125.644 57.9289 127.053C57.7992 127.813 57.3915 128.804 56.7984 129.342C56.2609 129.824 55.6401 130.092 54.908 130.157C54.1759 130.222 53.4902 130.167 52.8508 130C52.2021 129.833 51.4515 129.509 50.5805 129.045C49.6075 128.536 48.7364 127.85 47.9302 127.146C46.9387 126.284 46.1047 125.227 45.3448 124.152C44.4367 122.874 43.7973 121.372 43.3339 119.871C40.6651 110.947 38.8489 101.838 37.8481 92.5809C37.8017 92.1176 37.6164 91.7006 37.2921 91.3577C36.9677 91.0056 36.5971 90.8203 36.1801 90.7925C36.1059 90.7832 36.0689 90.7832 35.9947 90.7832C32.9831 90.57 29.9621 90.3477 26.9505 90.1067C26.8763 90.0975 26.8393 90.0974 26.7744 90.0882C26.3759 90.0604 26.0609 90.1809 25.8199 90.4681C25.579 90.7554 25.4956 91.1075 25.5512 91.5523C26.7744 100.254 28.9891 108.714 32.1676 116.906C32.5939 118.055 33.0757 119.241 33.0943 120.474C33.1128 121.298 32.9367 121.873 32.5939 122.188C32.251 122.503 31.7969 122.623 31.2224 122.549C30.6479 122.484 30.0919 122.327 29.5359 122.086C28.9891 121.845 28.3127 121.474 27.5157 120.965C26.6261 120.399 25.7921 119.732 24.9859 119.056C24.0129 118.24 23.1141 117.295 22.2708 116.341C21.3071 115.247 20.4731 114.015 19.7688 112.727C15.988 105.573 13.2914 98.039 11.7809 90.0882C11.7068 89.699 11.5215 89.3469 11.2249 89.0411C10.9284 88.7353 10.5948 88.5685 10.2427 88.5314C7.62948 88.2441 5.01628 87.9476 2.40308 87.6232C2.06948 87.5862 1.81001 87.6696 1.63394 87.892C1.45788 88.1051 1.40228 88.3924 1.48568 88.7445C3.25561 96.0281 6.37848 102.691 10.5855 108.872C12.1979 111.188 14.1069 113.273 16.0714 115.266C18.1564 117.369 20.3526 119.389 22.5859 121.354C24.7635 123.281 26.9783 125.181 29.2579 126.979C31.3243 128.61 33.4464 130.231 35.6797 131.547C37.2087 132.446 39.0805 133.577 40.8227 133.604C41.7864 133.623 42.8984 133.493 43.5841 132.585C45.4838 134.383 47.5039 136.079 49.6353 137.552C51.8871 139.109 54.3149 140.536 56.8911 141.407C58.9483 142.102 61.2371 142.686 63.3592 142.222C65.2125 141.824 66.6581 140.953 67.8813 139.526C69.2713 137.904 69.8922 135.671 70.2721 133.558C70.7818 130.648 70.5501 127.627 70.1517 124.671C68.6783 114.58 67.6867 104.442 67.1493 94.2582C67.1215 93.7392 66.9361 93.2852 66.5933 92.9145C66.2411 92.516 65.8427 92.3214 65.3793 92.3029Z" fill="#E51C3B"/>
<path d="M161.475 128.499C159.77 130.741 157.99 132.937 156.091 135.004C154.312 136.931 152.412 138.785 150.392 140.434C148.492 141.991 146.435 143.39 144.267 144.585C142.144 145.762 139.819 146.624 137.493 147.125C134.777 147.699 131.923 147.681 129.227 146.643C126.558 145.614 124.352 143.881 122.471 141.796C120.303 139.396 118.802 136.357 117.782 133.354C116.578 129.796 116.096 125.978 116.226 122.225C116.365 118.231 117.208 114.256 118.737 110.568C120.238 106.963 122.36 103.58 125.02 100.717C127.605 97.9278 130.709 95.574 134.101 93.8782C137.446 92.201 141.116 91.265 144.86 91.1353C147.575 91.0426 150.42 91.228 153.051 92.0156C155.257 92.6736 157.434 93.5725 159.316 94.9161C161.086 96.1857 162.652 97.6961 163.93 99.4475C165.2 101.19 166.229 103.126 167.118 105.147C167.266 105.499 167.239 105.897 167.035 106.342C166.84 106.787 166.534 107.13 166.127 107.361C162.902 109.103 159.686 110.836 156.461 112.569C156.007 112.819 155.572 112.875 155.183 112.727C154.784 112.588 154.506 112.328 154.349 111.967C153.431 110.076 152.245 108.306 150.429 107.167C148.464 105.934 146.101 105.647 143.924 105.804C142.154 105.934 140.486 106.499 138.901 107.38C137.298 108.26 135.806 109.548 134.601 110.966C133.341 112.439 132.257 114.144 131.543 115.933C130.821 117.758 130.302 119.64 130.135 121.558C129.977 123.365 130.116 125.209 130.561 126.988C130.932 128.48 131.599 130.065 132.6 131.241C133.545 132.363 134.62 133.289 135.889 133.855C137.215 134.448 138.632 134.54 140.124 134.355C142.469 134.059 144.637 132.872 146.555 131.464C148.603 129.963 150.41 128.026 151.865 125.895C152.152 125.487 152.505 125.153 152.931 124.894C153.357 124.634 153.756 124.569 154.117 124.681C156.563 125.403 159.019 126.089 161.503 126.682C161.79 126.775 161.938 126.988 161.929 127.331C161.947 127.665 161.79 128.054 161.475 128.499Z" fill="#F49925"/>
<path d="M210.588 88.5036C207.484 101.495 199.987 112.476 190.266 121.465C189.961 121.743 189.618 122.049 189.228 122.383C188.839 122.716 188.524 122.985 188.283 123.189C186.393 124.718 184.456 126.182 182.464 127.581C182.167 127.785 182.028 127.841 182.038 127.739C182.047 127.637 182.186 127.433 182.455 127.109C185.262 123.698 187.829 120.14 190.146 116.378C190.359 116.026 190.424 115.775 190.35 115.627C190.276 115.47 190.072 115.46 189.757 115.59C186.356 116.962 182.909 118.222 179.424 119.38C179.044 119.51 178.674 119.742 178.331 120.103C177.988 120.455 177.729 120.835 177.552 121.233C175.681 125.441 173.577 129.518 171.233 133.493C171.01 133.864 170.714 134.225 170.343 134.587C169.972 134.948 169.629 135.217 169.314 135.374C166.942 136.551 164.542 137.654 162.105 138.692C161.744 138.849 161.512 138.831 161.428 138.646C161.345 138.46 161.382 138.164 161.567 137.765C168.063 123.346 172.057 108.038 173.716 92.3215C173.762 91.8396 173.938 91.4226 174.244 91.0705C174.55 90.7183 174.939 90.5237 175.403 90.4959C178.479 90.2921 181.556 90.0697 184.623 89.8287C185.021 89.8009 185.346 89.9307 185.596 90.2179C185.837 90.5052 185.93 90.8759 185.874 91.3207C185.16 96.5563 184.104 101.709 182.705 106.805C182.584 107.232 182.603 107.565 182.76 107.806C182.918 108.047 183.196 108.121 183.613 108.028C187.32 107.204 190.998 106.296 194.668 105.313C195.011 105.221 195.354 105.008 195.697 104.683C196.039 104.359 196.29 104.007 196.429 103.627C198.115 99.1325 199.403 94.5547 200.284 89.8287C200.358 89.4303 200.534 89.0781 200.812 88.7723C201.09 88.4665 201.433 88.2905 201.831 88.2534C204.444 87.9754 207.057 87.6789 209.661 87.3731C209.995 87.336 210.255 87.4287 210.44 87.6511C210.616 87.8549 210.672 88.1515 210.588 88.5036Z" fill="#F49925"/>
<path d="M16.0158 47.5356C17.6745 48.5179 19.3796 49.3241 21.1773 49.806C23.0399 50.3064 24.9489 50.4176 26.8763 50.1581C28.3497 49.9635 29.9806 49.5002 31.2502 48.6384C32.2417 47.9526 33.0016 46.9333 33.2703 45.7472C33.4093 45.1356 33.2981 44.6722 32.9645 44.4035C32.6309 44.1255 32.149 43.9216 31.5282 43.8197C30.9073 43.7085 30.166 43.6714 29.3042 43.7085C28.4516 43.7456 27.5713 43.7271 26.7466 43.7178C25.8106 43.6993 24.8376 43.727 23.8832 43.7456C22.8546 43.7641 21.7426 43.69 20.7232 43.5417C19.7873 43.4027 18.7772 43.1525 17.8876 42.8004C17.0351 42.4575 16.3864 41.92 15.988 41.2343C15.5617 40.493 15.5246 39.3068 15.6915 38.5192C16.0158 37.0458 16.822 35.5724 17.6096 34.3028C19.1294 31.8842 21.0198 29.6417 23.0492 27.5567C24.9488 25.6107 26.9226 23.7296 28.9891 21.9782C30.8332 20.4121 32.7236 18.8738 34.7159 17.5209C36.3654 16.3996 38.0612 15.2691 39.8404 14.3888C41.9346 13.3509 44.2699 12.2667 46.6606 12.3408C48.6252 12.3964 50.1727 13.2397 51.7017 14.4258C51.887 14.639 51.9241 14.9726 51.8129 15.3988C51.6924 15.8344 51.4608 16.2699 51.0994 16.6962C48.7364 19.6244 46.3641 22.562 44.0011 25.4902C43.6397 25.9165 43.2505 26.2316 42.8335 26.4262C42.4072 26.6208 42.0829 26.6208 41.8605 26.4354C40.4798 25.7126 39.1361 25.1196 37.533 25.0825C36.1523 25.0454 34.753 25.3049 33.4649 25.796C33.0664 25.9443 32.6124 26.1296 32.0842 26.3428C31.556 26.5559 31.0278 26.8339 30.5088 27.149C29.9806 27.4733 29.4895 27.8532 29.0262 28.2888C28.5721 28.7243 28.1922 29.2247 27.9142 29.79C27.6362 30.3552 27.7659 30.7166 28.3127 30.902C28.8594 31.0873 29.5729 31.18 30.4254 31.1985C31.278 31.2078 32.1583 31.18 33.0294 31.0873C33.9097 31.0039 34.475 30.939 34.7252 30.9112C36.1244 30.8093 37.57 30.8556 38.8952 31.0502C40.4056 31.2634 41.7493 31.8101 42.9818 32.709C44.3718 33.7098 45.1965 35.3314 45.7803 36.9346C46.6606 39.3346 46.3641 42.1424 45.9656 44.6352C45.5301 47.3874 44.7702 50.2137 43.4266 52.6879C42.2497 54.8656 40.7763 56.8764 38.8488 58.5259C36.9862 60.1012 34.8364 61.3152 32.5382 62.1121C30.0548 62.9924 27.4508 63.4558 24.8747 63.6411C22.8824 63.7894 20.853 63.7523 18.8421 63.5114C17.1926 63.3168 15.4968 62.9368 13.9493 62.3808C12.6149 61.899 11.2713 61.3152 10.0851 60.546C9.05652 59.8696 8.12058 59.1468 7.18465 58.3128C6.95298 58.1182 6.86031 57.8031 6.94371 57.3861C7.01785 56.9691 7.21245 56.5799 7.52752 56.2092C9.64958 53.6146 11.7902 51.0477 13.9586 48.4808C14.3014 48.1009 14.6721 47.8229 15.0706 47.6468C15.4598 47.4059 15.7841 47.3874 16.0158 47.5356Z" fill="#F49925"/>
<path d="M72.2366 5.07579C72.4868 4.62172 72.8389 4.19545 73.293 3.81552C73.7471 3.43559 74.1826 3.19465 74.6181 3.10199C77.4537 2.55525 80.2893 2.07339 83.1435 1.65639C83.5512 1.60079 83.9311 1.69345 84.2833 1.96219C84.6354 2.22165 84.8671 2.56452 84.9783 2.98152C89.6301 21.4963 96.506 39.3903 103.382 57.1637C103.586 57.6919 103.549 58.2479 103.252 58.8317C102.956 59.4155 102.381 59.7121 101.547 59.7213C97.0805 59.7398 92.6047 59.7769 88.1382 59.8511C87.5729 59.8603 87.0447 59.675 86.5629 59.3136C86.081 58.9429 85.7196 58.5074 85.4694 57.9885C84.83 56.2834 84.1813 54.5783 83.5512 52.8732C83.3195 52.3636 82.9674 51.9373 82.4948 51.5759C82.0315 51.2238 81.5403 51.0477 81.0399 51.0662C75.8228 51.2423 70.6057 51.474 65.3978 51.7612C64.8603 51.789 64.3599 51.9929 63.8688 52.3821C63.3777 52.7621 63.0348 53.2068 62.7939 53.7165C62.0062 55.403 61.2278 57.0896 60.4494 58.7761C60.227 59.2858 59.8749 59.7213 59.393 60.1012C58.9111 60.4812 58.4293 60.6758 57.9474 60.6943C53.8793 60.8704 49.8113 61.0557 45.7525 61.2781C45.5208 61.2874 45.2891 61.2503 45.0297 61.1576C44.7887 61.0742 44.5941 60.926 44.4459 60.7221C44.2976 60.5183 44.2235 60.2681 44.2049 59.953C44.1864 59.6379 44.2791 59.2673 44.5107 58.841C52.86 40.4652 62.5622 22.7566 72.2366 5.07579ZM70.9949 37.5832C73.1262 37.4165 75.2483 37.2589 77.3889 37.1292C77.8707 37.1014 78.2321 36.8975 78.4823 36.5361C78.7233 36.1655 78.7418 35.7485 78.5379 35.2759C78.1117 33.7469 77.6576 32.2086 77.2313 30.6796C76.7865 29.0857 76.3417 27.4826 75.9247 25.8794C75.795 25.4254 75.6097 25.203 75.3873 25.2401C75.1556 25.2586 74.9239 25.5181 74.683 26.0092C73.1447 29.3081 71.625 32.6163 70.1053 35.9245C69.8643 36.4249 69.8273 36.8419 69.9755 37.1755C70.1331 37.4721 70.4667 37.6203 70.9949 37.5832Z" fill="#F49925"/>
<path d="M151.096 7.93919C156.35 24.5451 159.445 41.7069 160.752 59.0634C160.789 59.6009 160.65 60.0457 160.353 60.4071C160.048 60.7685 159.658 60.9445 159.186 60.9167C155.627 60.7499 152.078 60.6017 148.511 60.4719C148.019 60.4534 147.501 60.2681 146.945 59.9159C146.389 59.5638 145.953 59.1561 145.638 58.702C138.744 48.2029 131.664 37.8057 124.649 27.3899C124.334 26.9451 124.028 26.7598 123.722 26.8154C123.416 26.8803 123.287 27.1861 123.315 27.7235C123.898 37.7408 124.297 47.7581 124.519 57.7846C124.528 58.3591 124.362 58.8595 124 59.258C123.648 59.6565 123.213 59.8511 122.684 59.8511C118.765 59.8047 114.854 59.7677 110.934 59.7399C110.397 59.7399 109.952 59.536 109.581 59.119C109.211 58.7113 109.016 58.2109 109.016 57.6271C108.951 39.0196 108.784 20.4214 108.497 1.81392C108.488 1.31352 108.636 0.896522 108.933 0.553655C109.238 0.210788 109.591 0.0439861 110.035 0.0532527C113.251 0.136653 116.466 0.312723 119.673 0.57219C120.09 0.609256 120.553 0.776054 121.044 1.09112C121.535 1.40619 121.934 1.76759 122.221 2.18459C129.023 12.2389 135.991 22.1635 142.969 32.0881C143.303 32.5329 143.609 32.7461 143.905 32.7275C144.202 32.709 144.313 32.431 144.248 31.9121C143.062 22.9234 141.533 13.9903 139.568 5.12212C139.457 4.65879 139.513 4.27885 139.717 4.01012C139.92 3.74139 140.217 3.64872 140.615 3.74139C143.497 4.39006 146.361 5.12212 149.206 5.91906C149.586 6.03026 149.956 6.28046 150.327 6.66965C150.698 7.06812 150.948 7.49439 151.096 7.93919Z" fill="#F49925"/>
<path d="M171.288 59.7121C169.694 42.8838 165.895 26.3706 159.612 10.6636C159.436 10.2373 159.417 9.91299 159.547 9.70913C159.677 9.50526 159.918 9.46819 160.27 9.59792C165.024 11.4327 169.657 13.4899 174.188 15.8437C179.915 18.8831 184.91 23.2385 189.719 27.5289C192.611 30.1329 195.455 32.8295 198.078 35.7021C200.524 38.3802 202.906 41.2343 204.667 44.4128C206.047 46.9055 207.354 49.7133 207.326 52.5582C207.308 54.9119 206.585 56.9599 205.084 58.7391C203.638 60.4441 201.479 61.5098 199.347 62.2048C196.66 63.0944 193.75 63.1407 190.887 62.9554C184.956 62.4643 179.026 62.0473 173.095 61.6766C172.65 61.6488 172.252 61.4449 171.9 61.065C171.529 60.6758 171.325 60.231 171.288 59.7121ZM184.002 49.4446C185.54 49.6855 187.069 49.9357 188.598 50.1952C189.756 50.3435 190.804 50.3805 191.962 50.3435C192.861 50.3157 194.001 49.8523 194.64 49.2315C195.446 48.4531 195.659 47.2947 195.752 46.2661C195.91 44.4962 195.057 42.5131 194.362 40.8729C193.491 38.8343 192.314 36.8697 190.933 35.1183C189.803 33.6727 188.543 32.2735 187.162 31.0966C186.022 30.1143 184.827 29.1599 183.52 28.4093C182.464 27.8069 181.398 27.2787 180.267 26.8154C178.914 26.3057 177.562 25.8239 176.199 25.3327C175.829 25.203 175.588 25.2493 175.449 25.4532C175.31 25.6663 175.338 25.9814 175.514 26.4077C178.303 33.2743 180.499 40.3169 182.149 47.5449C182.26 48.0083 182.491 48.4345 182.853 48.8145C183.196 49.1666 183.585 49.389 184.002 49.4446Z" fill="#F49925"/>
<path d="M105.875 84.0556C164.121 84.0556 211.339 80.9108 211.339 77.0315C211.339 73.1521 164.121 70.0073 105.875 70.0073C47.6286 70.0073 0.410767 73.1521 0.410767 77.0315C0.410767 80.9108 47.6286 84.0556 105.875 84.0556Z" fill="#A60400"/>
</svg>
